<?xml version="1.0" encoding="utf-8"?>
<!-- Generator: Adobe Illustrator 21.1.0, SVG Export Plug-In . SVG Version: 6.00 Build 0)  -->
<svg version="1.1" id="Layer_1" xmlns="http://www.w3.org/2000/svg" xmlns:xlink="http://www.w3.org/1999/xlink" x="0px" y="0px"
	 viewBox="0 0 180.5 126.1" enable-background="new 0 0 180.5 126.1" xml:space="preserve">
<g>
	<g>
		<path fill="#0053A8" d="M161.1,16.6c1.1,0,1.9,0.2,2.5,0.5c0.5,0.4,0.8,0.9,0.8,1.6c0,0.6-0.2,1-0.5,1.4c-0.3,0.4-0.8,0.6-1.3,0.7
			l1.8,3.6h-1.7l-1.6-3.3h-1.5v3.3h-1.5v-7.8H161.1z M160.8,17.6h-1.2v2.6h1.2c0.7,0,1.2-0.1,1.5-0.3c0.3-0.2,0.5-0.5,0.5-1
			c0-0.5-0.2-0.8-0.5-1C162,17.7,161.5,17.6,160.8,17.6z"/>
		<path fill="#0053A8" d="M168.2,20.7c0,4.1-3.3,7.3-7.3,7.3c-4.1,0-7.3-3.3-7.3-7.3s3.3-7.3,7.3-7.3
			C165,13.4,168.2,16.6,168.2,20.7z M160.9,14.5c-3.4,0-6.2,2.8-6.2,6.2s2.8,6.2,6.2,6.2c3.4,0,6.2-2.8,6.2-6.2
			S164.3,14.5,160.9,14.5z"/>
	</g>
	<path fill="#0053A8" d="M178.3,67.5c0,0-10.1-6.7-11.5-7.6c-1.4-0.9-1.8-1.4-3.1-1.9c-1.3-0.4-2.9-0.7-6.2-1.3
		c-3.3-0.7-6.2-0.9-6.2-0.9l-2.9-3.3c0,0,0.4-0.3,1.3-0.9c0.9-0.6,1.4-0.5,1.3-2.4c0-1.9,0-17.2,0-17.2s0-0.5,0-1.1
		c0-1.2-0.9-1.8-0.9-1.8l-2-1.8l1.3-0.9c0,0,0.6-0.4,1.1-0.9c0.5-0.4,0.4-1.5,0.4-1.5s0-4.5,0-6.1c0-1.3-0.5-2.2-1.8-3.2
		c-1.3-1-18-13.5-18-13.5s-1.6-2.2-5.1-0.7C125.1,1,90.4,15.3,87.1,16.7c-3.3,1.3-3.7,2.1-3.7,4.1c0,1.1-0.1,3.3-0.1,3.3
		s-0.5-0.4-1.7-1.1c-1.2-0.7-2.3-0.9-3.4-0.9c-1.1,0-13.9,0.2-25.8,7.2c-12.9,7.6-19.3,18.6-19.3,18.6s-4.2-3-5.4-4
		c-2-1.7-3.5-2.3-6.1-1.2c-2.2,0.9-17,6.7-18.3,7.2C1.6,50.6,0,51.3,0,54c0,2.8,0,50.5,0,53.2c0.1,2.7,0.2,3.1,3.3,5.5
		c3.1,2.4,15.9,10.6,18.2,12c2.3,1.4,3.4,1.3,6.3,0c2.9-1.2,17.2-7,17.2-7s1.8-0.7,2.4-1.8c0.7-1.1,0.4-3.3,0.4-3.3l-0.2-3.8
		c0,0,9.5,7.1,14.4,9.3c4.9,2.2,9.4,4.4,18.1,5.3c14.7,1.5,19.3,1.5,36-2.9c16-4.2,21.2-5.6,29.2-4.6c7.5,0.9,11.3,2,16.1,5.1
		c1.7,1.1,4.6,3.1,5.5,4c0.9,0.9,2.2,1.1,3.1,0.7c0.9-0.4,1.3-3.1,1.3-3.1l8.4-47.5c0,0,0.7-3.1,0.7-4.9
		C180.5,68.6,178.3,67.5,178.3,67.5z M81.9,63.3c-0.1,2.3-0.1,14.3-0.1,14.3s0.3,2.3-0.7,2.6c-6.1,2.2-11.4,2-14.1-0.3
		c-1.6-1.4-2.9-12.3,6.3-18.6c2.8-1.5,6.8-1.8,7.8-1.4C82,60.3,81.9,61.5,81.9,63.3z"/>
	<path fill="#FFFFFF" d="M160.4,89.6c0,0.3-0.2,0.7-0.6,0.8c-2-0.4-4-1.1-6.1-1.6c-8.6-2-18.5-0.5-26.5,2c-3.5,1-6.7,2.5-10,3.8
		c-4.8,1.9-9.8,4.1-14.6,6.3c-5.3,2.2-10.6,4.2-16.2,5.6c-7.7,2.1-16.3,2.9-24.5,1.4c-8.2-1.5-15.7-4.7-21.5-10.3
		c-1.5-1.6-3.2-3.4-4.3-5.2c-2.2-3.2-3.7-6.7-4.7-10.4c-3.2-11.6-0.6-24.3,6-33.3c2.1-3.5,4.7-6.8,7.8-9.5c0.9-0.9,1.7-1.6,2.6-2.3
		c2.6-2,5.1-3.8,8-5.2c2.6-1.6,5.5-2.5,8.4-3.5c4.7-1.5,9.7-2.3,14.8-2.3c1.2,0,0.9,1.4,0.9,2.9c0,1.7,0,14.3-0.1,15.5
		c0,1.2-1.4,1-1.9,1c-6.8-0.5-25.9,5.9-25.7,22.5c0.3,22,24.5,18.8,27.1,18.2c25.9-6,31.5-21.6,61-26.4c8.2-1.3,20.1,1.1,22,1.6
		c0.5,0.2,1,0.5,1.2,0.9C162.7,71.2,161.5,80.4,160.4,89.6z"/>
	<path fill="#FFFFFF" d="M24.8,98.7c0,1.5-1.1,2-2.5,2.5c-1.4,0.5-15.8,6.2-16.6,6.5c-1.4,0.6-2.4,0.1-2.4-1.6
		c0-2.7,0.1-50.2,0-51.4c-0.1-1.2,0.5-1.6,1.6-2.1c1.1-0.5,17.5-6.9,18.4-7.2c0.9-0.2,1.4,0.3,1.4,1.2C24.7,47.5,24.8,96,24.8,98.7z
		"/>
	<path fill="#FFFFFF" d="M86.6,22.9c0-0.8-0.2-2.2,0.9-2.9c1.6-0.9,40.1-16.4,40.7-16.7c0.6-0.3,0.8,0,0.8,0.4c0,0.4,0,9.6,0,10.5
		c0,1-0.7,1.2-1.6,1.5c-0.9,0.3-13.2,5.4-19,7.6l-0.3,0.5l0,5.8c0.1,0.2,0.1,0.7,0.5,0.7c1.6-0.4,19-7.4,19.6-7.7
		c0.6-0.2,1-0.3,1,0.7c0,0.8,0.1,9.3,0,14c-0.5,1-1.8,1.1-2.7,1.6c-1.6,0.5-15.7,6.1-18.1,7.3l-0.2,0.3l0.1,5.9
		c0.1,0.1,0.1,0.4,0.4,0.4c1-0.3,16.8-6.6,18.1-7c1.3-0.5,2.5-1.1,2.5,0c0,1.1,0.1,9.8,0.1,11.1c0,1.3-1,1.9-3,2.7
		C120.6,62.1,93,73,90.1,74.1c-2.9,1.1-3.7,0.9-3.7-0.3C86.4,72.5,86.5,23.7,86.6,22.9z"/>
</g>
</svg>
